<svg width="20" height="21" viewBox="0 0 20 21" fill="none" xmlns="http://www.w3.org/2000/svg">
<path d="M10.0001 20.5987C8.48816 20.6029 6.99532 20.2608 5.6361 19.5986C5.13865 19.3567 4.66203 19.074 4.2111 18.7536L4.0741 18.6536C2.83392 17.7382 1.81997 16.5509 1.1101 15.1826C0.375836 13.7665 -0.00499271 12.1938 4.94229e-05 10.5986C4.94229e-05 5.07579 4.47725 0.598633 10.0001 0.598633C15.5229 0.598633 20.0001 5.07579 20.0001 10.5986C20.0051 12.193 19.6247 13.765 18.8911 15.1806C18.1822 16.5481 17.1697 17.7351 15.9311 18.6506C15.4639 18.9926 14.968 19.2937 14.4491 19.5506L14.3691 19.5906C13.009 20.2563 11.5144 20.6012 10.0001 20.5987ZM10.0001 15.5986C8.50158 15.5957 7.12776 16.4327 6.4431 17.7656C8.68449 18.8758 11.3157 18.8758 13.5571 17.7656V17.7606C12.8716 16.4291 11.4977 15.5941 10.0001 15.5986ZM10.0001 13.5986C12.1662 13.6015 14.1635 14.7687 15.2291 16.6546L15.2441 16.6416L15.2581 16.6296L15.2411 16.6446L15.2311 16.6526C17.7601 14.4677 18.6644 10.941 17.4987 7.80874C16.3331 4.67651 13.3432 2.59895 10.0011 2.59895C6.65901 2.59895 3.66909 4.67651 2.50345 7.80874C1.33781 10.941 2.2421 14.4677 4.7711 16.6526C5.83736 14.7677 7.83446 13.6013 10.0001 13.5986ZM10.0001 12.5986C7.79096 12.5986 6.0001 10.8078 6.0001 8.59863C6.0001 6.38949 7.79096 4.59863 10.0001 4.59863C12.2092 4.59863 14.0001 6.38949 14.0001 8.59863C14.0001 9.6595 13.5787 10.6769 12.8285 11.4271C12.0784 12.1772 11.061 12.5986 10.0001 12.5986ZM10.0001 6.59863C8.89553 6.59863 8.0001 7.49406 8.0001 8.59863C8.0001 9.7032 8.89553 10.5986 10.0001 10.5986C11.1047 10.5986 12.0001 9.7032 12.0001 8.59863C12.0001 7.49406 11.1047 6.59863 10.0001 6.59863Z" fill="#9C9696"/>
</svg>
